<svg width="57" height="40" viewBox="0 0 57 40" fill="none" xmlns="http://www.w3.org/2000/svg">
<g clip-path="url(#clip0_2124_18703)">
<path d="M13.5825 9.31988C13.1895 8.86664 12.7056 8.63948 12.1297 8.63948H0.352903C0.2483 8.63948 0.162716 8.60611 0.0982634 8.53936C0.0327545 8.47369 0 8.39941 0 8.31974V0.319742C0 0.240075 0.0327545 0.166869 0.0982634 0.100121C0.162716 0.0333737 0.2483 0 0.352903 0H12.7975C15.9377 0 18.6468 1.29404 20.9238 3.87996L23.9467 7.59951L18.0583 14.8395L13.5825 9.31988ZM35.3315 3.84013C37.6085 1.28004 40.3303 0 43.4969 0H55.9024C56.007 0 56.0852 0.0269143 56.138 0.0796663C56.1898 0.133495 56.2162 0.213161 56.2162 0.319742V8.31974C56.2162 8.39941 56.1898 8.47369 56.138 8.53936C56.0852 8.60611 56.007 8.63948 55.9024 8.63948H44.1256C43.5497 8.63948 43.0658 8.86664 42.6727 9.31988L33.997 19.9596L42.7118 30.679C43.1049 31.1064 43.5751 31.3196 44.1256 31.3196H55.9024C56.007 31.3196 56.0852 31.353 56.138 31.4197C56.1898 31.4865 56.2162 31.5737 56.2162 31.6792V39.6792C56.2162 39.7588 56.1898 39.8331 56.138 39.8988C56.0852 39.9655 56.007 39.9989 55.9024 39.9989H43.4969C40.3303 39.9989 37.6212 38.706 35.3706 36.119L28.1477 27.2394L20.9238 36.119C18.6468 38.706 15.925 39.9989 12.7584 39.9989H0.352903C0.2483 39.9989 0.169055 39.9655 0.117282 39.8988C0.0644524 39.8321 0.0390941 39.7459 0.0390941 39.6383V31.6383C0.0390941 31.5586 0.0644524 31.4854 0.117282 31.4186C0.169055 31.3519 0.2483 31.3185 0.352903 31.3185H12.1297C12.6792 31.3185 13.1631 31.0924 13.5825 30.6381L22.1008 20.1588L35.3315 3.84013Z" fill="#00D1FF"/>
</g>
<defs>
<clipPath id="clip0_2124_18703">
<rect width="56.2162" height="40" fill="white"/>
</clipPath>
</defs>
</svg>
