<svg xmlns="http://www.w3.org/2000/svg" width="400" height="400" viewBox="40 40 400 400"><path fill="#00d1ff" d="M160.933 180.329q-3.207-3.673-7.908-3.675H88.921c-.57 0-1.035-.18-1.386-.54-.357-.355-.535-.756-.535-1.186v-43.201q0-.646.535-1.186c.35-.361.817-.541 1.386-.541h67.739c17.093 0 31.84 6.988 44.234 20.952l16.454 20.086-32.052 39.097zm118.386-29.592Q297.91 130 323.765 130h67.527q.853.001 1.282.43.424.435.426 1.297v43.201c0 .43-.144.831-.426 1.186q-.43.54-1.282.54h-64.105q-4.7.002-7.908 3.675l-47.224 57.456 47.437 57.886c2.14 2.308 4.699 3.459 7.695 3.459h64.105q.853 0 1.282.541c.282.361.426.831.426 1.401v43.201c0 .431-.144.832-.426 1.186q-.43.541-1.282.541h-67.527q-25.856.002-44.233-20.952l-39.316-47.951-39.322 47.951Q182.303 346.002 156.447 346H88.921q-.857 0-1.283-.541c-.287-.36-.425-.825-.425-1.407v-43.201c0-.43.138-.825.425-1.186.282-.36.714-.54 1.283-.54h64.104c2.991 0 5.625-1.221 7.908-3.675l46.368-56.59z"/></svg>