<svg xmlns="http://www.w3.org/2000/svg" fill="none" viewBox="0 0 22 16"><path fill="#00D1FF" d="M5.315 3.728a.72.72 0 0 0-.568-.272H.138a.13.13 0 0 1-.1-.04A.12.12 0 0 1 0 3.328v-3.2Q0 .08.038.04a.13.13 0 0 1 .1-.04h4.87q1.845 0 3.18 1.552L9.371 3.04 7.067 5.936zm8.512-2.192Q15.163 0 17.022 0h4.855q.062 0 .092.032T22 .128v3.2q0 .048-.03.088-.032.04-.093.04h-4.609a.72.72 0 0 0-.568.272l-3.395 4.256 3.41 4.288a.72.72 0 0 0 .553.256h4.61q.06 0 .091.04.03.04.031.104v3.2a.14.14 0 0 1-.03.088q-.032.04-.093.04h-4.855q-1.86 0-3.18-1.552l-2.827-3.552-2.827 3.552Q6.852 16 4.993 16H.138q-.061 0-.092-.04a.17.17 0 0 1-.03-.104v-3.2a.14.14 0 0 1 .03-.088q.03-.04.092-.04h4.609q.322 0 .568-.272L8.65 8.064z"/></svg>